<svg height="512" viewBox="0 0 64 64" width="512" xmlns="http://www.w3.org/2000/svg" xmlns:xlink="http://www.w3.org/1999/xlink"><linearGradient id="New_Gradient_Swatch_3" gradientUnits="userSpaceOnUse" x1="61.046" x2="60.201" y1="67.356" y2="1.471"><stop offset="0" stop-color="#006df0"/><stop offset="1" stop-color="#00e7f0"/></linearGradient><linearGradient id="New_Gradient_Swatch_3-2" x1="14.06" x2="13.216" xlink:href="#New_Gradient_Swatch_3" y1="67.958" y2="2.073"/><linearGradient id="New_Gradient_Swatch_3-3" x1="4.408" x2="3.563" xlink:href="#New_Gradient_Swatch_3" y1="68.082" y2="2.197"/><linearGradient id="New_Gradient_Swatch_3-4" x1="19.111" x2="18.266" xlink:href="#New_Gradient_Swatch_3" y1="67.893" y2="2.008"/><linearGradient id="New_Gradient_Swatch_3-5" x1="9.808" x2="8.964" xlink:href="#New_Gradient_Swatch_3" y1="68.013" y2="2.128"/><linearGradient id="New_Gradient_Swatch_3-6" x1="6.54" x2="5.695" xlink:href="#New_Gradient_Swatch_3" y1="68.054" y2="2.169"/><linearGradient id="New_Gradient_Swatch_3-7" x1="56.635" x2="55.79" xlink:href="#New_Gradient_Swatch_3" y1="67.412" y2="1.527"/><linearGradient id="New_Gradient_Swatch_3-8" x1="52.785" x2="51.94" xlink:href="#New_Gradient_Swatch_3" y1="67.462" y2="1.577"/><linearGradient id="New_Gradient_Swatch_3-9" x1="3.86" x2="3.015" xlink:href="#New_Gradient_Swatch_3" y1="68.089" y2="2.204"/><linearGradient id="New_Gradient_Swatch_3-10" x1="48.049" x2="47.205" xlink:href="#New_Gradient_Swatch_3" y1="67.522" y2="1.637"/><linearGradient id="New_Gradient_Swatch_3-11" x1="59.431" x2="58.587" xlink:href="#New_Gradient_Swatch_3" y1="67.376" y2="1.491"/><linearGradient id="New_Gradient_Swatch_3-12" x1="36.769" x2="35.924" xlink:href="#New_Gradient_Swatch_3" y1="67.667" y2="1.782"/><linearGradient id="New_Gradient_Swatch_3-13" x1="30.719" x2="29.875" xlink:href="#New_Gradient_Swatch_3" y1="67.744" y2="1.859"/><linearGradient id="New_Gradient_Swatch_3-14" x1="42.632" x2="41.788" xlink:href="#New_Gradient_Swatch_3" y1="67.592" y2="1.707"/><linearGradient id="New_Gradient_Swatch_3-15" x1="24.746" x2="23.901" xlink:href="#New_Gradient_Swatch_3" y1="67.821" y2="1.936"/><linearGradient id="New_Gradient_Swatch_3-16" x1="3.507" x2="2.663" xlink:href="#New_Gradient_Swatch_3" y1="68.093" y2="2.208"/><linearGradient id="New_Gradient_Swatch_3-17" x1="40.112" x2="39.267" xlink:href="#New_Gradient_Swatch_3" y1="67.624" y2="1.739"/><linearGradient id="New_Gradient_Swatch_3-18" x1="50.808" x2="49.963" xlink:href="#New_Gradient_Swatch_3" y1="67.487" y2="1.602"/><linearGradient id="New_Gradient_Swatch_3-19" x1="45.753" x2="44.908" xlink:href="#New_Gradient_Swatch_3" y1="67.552" y2="1.667"/><linearGradient id="New_Gradient_Swatch_3-20" x1="55.07" x2="54.226" xlink:href="#New_Gradient_Swatch_3" y1="67.432" y2="1.547"/><linearGradient id="New_Gradient_Swatch_3-21" x1="61.406" x2="60.562" xlink:href="#New_Gradient_Swatch_3" y1="67.351" y2="1.466"/><linearGradient id="New_Gradient_Swatch_3-22" x1="60.493" x2="59.648" xlink:href="#New_Gradient_Swatch_3" y1="67.363" y2="1.478"/><linearGradient id="New_Gradient_Swatch_3-23" x1="58.349" x2="57.505" xlink:href="#New_Gradient_Swatch_3" y1="67.39" y2="1.505"/><linearGradient id="New_Gradient_Swatch_3-24" x1="8.247" x2="7.403" xlink:href="#New_Gradient_Swatch_3" y1="68.033" y2="2.148"/><linearGradient id="New_Gradient_Swatch_3-25" x1="16.815" x2="15.97" xlink:href="#New_Gradient_Swatch_3" y1="67.923" y2="2.038"/><linearGradient id="New_Gradient_Swatch_3-26" x1="12.088" x2="11.243" xlink:href="#New_Gradient_Swatch_3" y1="67.983" y2="2.098"/><linearGradient id="New_Gradient_Swatch_3-27" x1="5.462" x2="4.617" xlink:href="#New_Gradient_Swatch_3" y1="68.068" y2="2.183"/><linearGradient id="New_Gradient_Swatch_3-28" x1="34.137" x2="33.292" xlink:href="#New_Gradient_Swatch_3" y1="67.701" y2="1.816"/><linearGradient id="New_Gradient_Swatch_3-29" x1="28.088" x2="27.243" xlink:href="#New_Gradient_Swatch_3" y1="67.778" y2="1.893"/><linearGradient id="New_Gradient_Swatch_3-30" x1="22.228" x2="21.383" xlink:href="#New_Gradient_Swatch_3" y1="67.853" y2="1.968"/><linearGradient id="New_Gradient_Swatch_3-31" x1="32.458" x2="31.613" xlink:href="#New_Gradient_Swatch_3" y1="67.722" y2="1.837"/><path d="m59.37 26.066c.136.63.252 1.277.345 1.923a1 1 0 0 0 .989.858 1.019 1.019 0 0 0 .144-.011 1 1 0 0 0 .852-1.136c-.1-.692-.224-1.385-.37-2.059a1 1 0 0 0 -1.955.421z" fill="url(#New_Gradient_Swatch_3)"/><path d="m12.543 11.5a1 1 0 0 0 .671-.259c.478-.433.98-.857 1.492-1.259a1 1 0 0 0 -1.236-1.582c-.549.431-1.087.886-1.6 1.35a1 1 0 0 0 .672 1.741z" fill="url(#New_Gradient_Swatch_3-2)"/><path d="m3.41 27.012a1.036 1.036 0 0 0 .206.021 1 1 0 0 0 .978-.8c.132-.631.288-1.269.466-1.9a1 1 0 0 0 -1.925-.533c-.19.672-.358 1.356-.5 2.032a1 1 0 0 0 .775 1.18z" fill="url(#New_Gradient_Swatch_3-3)"/><path d="m17.433 7.919a1 1 0 0 0 .5-.136c.56-.326 1.139-.637 1.718-.922a1 1 0 1 0 -.882-1.795c-.622.306-1.242.639-1.843.989a1 1 0 0 0 .5 1.864z" fill="url(#New_Gradient_Swatch_3-4)"/><path d="m8.5 16.008a1 1 0 0 0 .811-.413c.381-.527.785-1.046 1.2-1.543a1 1 0 1 0 -1.538-1.282c-.445.532-.877 1.088-1.286 1.652a1 1 0 0 0 .224 1.4.989.989 0 0 0 .589.186z" fill="url(#New_Gradient_Swatch_3-5)"/><path d="m5.068 21.177a.988.988 0 0 0 .405.087 1 1 0 0 0 .914-.6c.262-.59.55-1.182.855-1.758a1 1 0 0 0 -1.768-.936c-.327.617-.634 1.251-.915 1.884a1 1 0 0 0 .509 1.323z" fill="url(#New_Gradient_Swatch_3-6)"/><path d="m55.694 17.076a1 1 0 0 0 1.694-1.066c-.369-.585-.766-1.167-1.178-1.73a1 1 0 1 0 -1.61 1.183c.382.525.752 1.067 1.094 1.613z" fill="url(#New_Gradient_Swatch_3-7)"/><path d="m52.075 12.481a1 1 0 1 0 1.434-1.394c-.482-.5-.989-.983-1.51-1.449a1 1 0 0 0 -1.334 1.49c.486.435.96.891 1.41 1.353z" fill="url(#New_Gradient_Swatch_3-8)"/><path d="m4.617 37.876c-.135-.629-.249-1.276-.341-1.922a1 1 0 1 0 -1.98.281c.1.692.221 1.385.365 2.059a1 1 0 0 0 .977.791.937.937 0 0 0 .21-.022 1 1 0 0 0 .769-1.187z" fill="url(#New_Gradient_Swatch_3-9)"/><path d="m45.921 7.7c.562.322 1.12.67 1.659 1.031a1 1 0 1 0 1.12-1.66c-.578-.387-1.175-.759-1.778-1.1a1 1 0 0 0 -1 1.735z" fill="url(#New_Gradient_Swatch_3-10)"/><path d="m57.543 20.513c.265.587.513 1.195.739 1.806a1 1 0 1 0 1.875-.694c-.241-.654-.508-1.3-.79-1.933a1 1 0 1 0 -1.824.821z" fill="url(#New_Gradient_Swatch_3-11)"/><path d="m34.842 4.142c.641.065 1.292.153 1.934.263a1 1 0 1 0 .338-1.971c-.687-.118-1.385-.213-2.073-.282a1 1 0 1 0 -.2 1.99z" fill="url(#New_Gradient_Swatch_3-12)"/><path d="m28.88 4.166a.977.977 0 0 0 .108-.006c.649-.07 1.3-.117 1.947-.139a1 1 0 0 0 .965-1.036 1.012 1.012 0 0 0 -1.035-.964c-.69.025-1.392.076-2.088.15a1 1 0 0 0 .105 2z" fill="url(#New_Gradient_Swatch_3-13)"/><path d="m40.567 5.334c.62.2 1.24.422 1.84.663a1 1 0 1 0 .744-1.856c-.644-.259-1.308-.5-1.972-.711a1 1 0 0 0 -.612 1.9z" fill="url(#New_Gradient_Swatch_3-14)"/><path d="m22.958 5.438a1.027 1.027 0 0 0 .312-.05c.612-.2 1.243-.384 1.876-.543a1 1 0 0 0 -.489-1.94c-.678.171-1.354.367-2.011.582a1 1 0 0 0 .312 1.951z" fill="url(#New_Gradient_Swatch_3-15)"/><path d="m4 32q0-.956.063-1.894a1 1 0 0 0 -.931-1.064.985.985 0 0 0 -1.064.93c-.045.67-.068 1.352-.068 2v.085a.974.974 0 0 0 1 .969 1.026 1.026 0 0 0 1-1.026z" fill="url(#New_Gradient_Swatch_3-16)"/><path d="m40.675 58.63c-.62.2-1.252.383-1.876.538a1 1 0 1 0 .482 1.941c.67-.166 1.348-.36 2.013-.577a1 1 0 1 0 -.619-1.9z" fill="url(#New_Gradient_Swatch_3-17)"/><path d="m50.743 52.8c-.482.435-.986.858-1.5 1.258a1 1 0 1 0 1.232 1.574c.547-.428 1.086-.881 1.6-1.345a1 1 0 0 0 -1.332-1.487z" fill="url(#New_Gradient_Swatch_3-18)"/><path d="m46.016 56.246c-.562.325-1.141.634-1.722.919a1 1 0 0 0 .44 1.9.986.986 0 0 0 .439-.1c.623-.3 1.243-.635 1.845-.983a1 1 0 0 0 -1-1.731z" fill="url(#New_Gradient_Swatch_3-19)"/><path d="m54.659 48.453c-.379.521-.784 1.039-1.2 1.541a1 1 0 1 0 1.533 1.284c.449-.537.883-1.091 1.288-1.649a1 1 0 1 0 -1.617-1.176z" fill="url(#New_Gradient_Swatch_3-20)"/><path d="m61 30.879a1 1 0 0 0 -1 1v.121c0 .649-.022 1.307-.067 1.952a1 1 0 0 0 .929 1.067h.07a1 1 0 0 0 1-.931c.044-.688.068-1.388.068-2.088v-.121a1 1 0 0 0 -1-1z" fill="url(#New_Gradient_Swatch_3-21)"/><path d="m60.579 37.048a1 1 0 0 0 -1.184.772c-.133.63-.291 1.267-.471 1.9a1 1 0 0 0 .686 1.236.986.986 0 0 0 .277.039 1 1 0 0 0 .961-.725c.192-.673.361-1.357.5-2.033a1 1 0 0 0 -.769-1.189z" fill="url(#New_Gradient_Swatch_3-22)"/><path d="m58.91 42.879a1 1 0 0 0 -1.32.507c-.263.588-.552 1.179-.859 1.757a1 1 0 0 0 .414 1.352.987.987 0 0 0 .468.117 1 1 0 0 0 .884-.53c.329-.618.639-1.251.919-1.883a1 1 0 0 0 -.506-1.32z" fill="url(#New_Gradient_Swatch_3-23)"/><path d="m8.273 46.874a1 1 0 0 0 -1.693 1.064c.369.588.764 1.171 1.173 1.731a1 1 0 1 0 1.616-1.178c-.382-.524-.751-1.068-1.096-1.617z" fill="url(#New_Gradient_Swatch_3-24)"/><path d="m18.028 56.271c-.56-.324-1.118-.672-1.658-1.036a1 1 0 1 0 -1.118 1.659c.579.39 1.177.763 1.776 1.109a1 1 0 1 0 1-1.732z" fill="url(#New_Gradient_Swatch_3-25)"/><path d="m11.884 51.477a1 1 0 0 0 -1.437 1.391c.485.5.991.988 1.507 1.452a1 1 0 0 0 1.337-1.487c-.481-.433-.955-.89-1.407-1.356z" fill="url(#New_Gradient_Swatch_3-26)"/><path d="m6.433 43.434c-.266-.592-.513-1.2-.735-1.807a1 1 0 0 0 -1.878.688c.239.65.5 1.3.787 1.936a1 1 0 0 0 .914.592 1 1 0 0 0 .912-1.409z" fill="url(#New_Gradient_Swatch_3-27)"/><path d="m34.954 59.846c-.646.068-1.3.113-1.947.135a1 1 0 0 0 .033 2h.035c.693-.023 1.395-.072 2.088-.145a1 1 0 0 0 -.209-1.989z" fill="url(#New_Gradient_Swatch_3-28)"/><path d="m29.1 59.852c-.64-.066-1.291-.156-1.935-.267a1 1 0 0 0 -.341 1.971c.689.119 1.386.215 2.072.285a.9.9 0 0 0 .1.006 1 1 0 0 0 .1-2z" fill="url(#New_Gradient_Swatch_3-29)"/><path d="m23.377 58.647c-.618-.2-1.236-.423-1.838-.666a1 1 0 1 0 -.747 1.855c.645.26 1.308.5 1.97.715a1.032 1.032 0 0 0 .308.049 1 1 0 0 0 .307-1.953z" fill="url(#New_Gradient_Swatch_3-30)"/><path d="m57 32a25 25 0 1 0 -25 25 25.028 25.028 0 0 0 25-25zm-47.975 1h9.988a45.27 45.27 0 0 0 1.268 10h-8.474a22.844 22.844 0 0 1 -2.782-10zm2.782-12h8.474a45.27 45.27 0 0 0 -1.268 10h-9.988a22.844 22.844 0 0 1 2.782-10zm43.168 10h-9.988a45.27 45.27 0 0 0 -1.268-10h8.475a22.857 22.857 0 0 1 2.781 10zm-11.988 0h-9.987v-10h8.61a42.418 42.418 0 0 1 1.377 10zm-9.987-12v-9.9c3.274.651 6.183 4.452 8.008 9.9zm-2-9.9v9.9h-8.008c1.825-5.444 4.734-9.245 8.008-9.9zm0 11.9v10h-9.987a42.47 42.47 0 0 1 1.377-10zm-9.987 12h9.987v10h-8.61a42.47 42.47 0 0 1 -1.377-10zm9.987 12v9.9c-3.274-.651-6.183-4.452-8.008-9.9zm2 9.9v-9.9h8.008c-1.825 5.444-4.734 9.245-8.008 9.9zm0-11.9v-10h9.987a42.418 42.418 0 0 1 -1.377 10zm11.987-10h9.988a22.857 22.857 0 0 1 -2.781 10h-8.475a45.27 45.27 0 0 0 1.268-10zm5.973-14h-7.8a22.35 22.35 0 0 0 -5.07-9.175 23.072 23.072 0 0 1 12.87 9.175zm-25.051-9.175a22.338 22.338 0 0 0 -5.069 9.175h-7.8a23.075 23.075 0 0 1 12.869-9.175zm-12.869 35.175h7.8a22.338 22.338 0 0 0 5.069 9.175 23.075 23.075 0 0 1 -12.869-9.175zm25.051 9.175a22.35 22.35 0 0 0 5.07-9.175h7.8a23.072 23.072 0 0 1 -12.87 9.175z" fill="url(#New_Gradient_Swatch_3-31)"/></svg>