<?xml version="1.0" encoding="utf-8"?>
<!-- Generator: Adobe Illustrator 15.0.2, SVG Export Plug-In . SVG Version: 6.00 Build 0)  -->
<!DOCTYPE svg PUBLIC "-//W3C//DTD SVG 1.1//EN" "http://www.w3.org/Graphics/SVG/1.1/DTD/svg11.dtd">
<svg version="1.1" id="Layer_1" xmlns="http://www.w3.org/2000/svg" xmlns:xlink="http://www.w3.org/1999/xlink" x="0px" y="0px"
	 width="566.929px" height="566.928px" viewBox="70.866 0 566.929 566.928" enable-background="new 70.866 0 566.929 566.928"
	 xml:space="preserve">
<g>
	<path d="M159.567,566.928h-49.182c-21.803,0-39.52-17.905-39.52-39.897V347.007c0-22.016,17.717-39.921,39.52-39.921h62.693
		c10.865,0,21.378,4.583,28.818,12.614c7.56,8.126,11.409,19.181,10.583,30.283l-13.512,180.047
		C197.409,550.699,180.118,566.928,159.567,566.928L159.567,566.928z M118.11,519.684h34.252l12.425-165.354H118.11V519.684z
		 M388.984,566.928c-57.308,0-120.095-12.283-167.977-32.812l-44.031-18.873c-12-5.126-17.552-19.017-12.426-30.992
		c5.126-12.024,18.992-17.646,31.016-12.402l44.056,18.874c42.307,18.118,98.126,28.961,149.362,28.961
		c65.456,0,118.039-22.394,185.173-54.047c12.944-6.118,16.394-12.354,16.394-15.071c0-2.929-1.063-3.992-1.418-4.347
		c-2.243-0.874-14.268-0.188-30.26,5.74c-4.582,1.701-9.07,3.166-13.748,4.37c-59.125,15.26-140.739,18.473-203.196,8.079
		c-12.661-2.126-21.307-13.961-19.488-26.646c1.819-12.709,13.205-21.732,26.197-20.126c33.213,4.016,60.047,3.401,82.181-1.795
		c5.457-0.874,8.032-3.827,8.032-7.252c0-3.567-2.575-6.401-6.261-6.874c-33.472-4.134-75.991-10.016-117.897-20.056
		c-8.527-2.055-28.842-5.314-46.984-5.314c-20.952,0-33.803,4.465-60.188,15.496c-12.047,5.078-25.866-0.686-30.897-12.709
		c-5.031-12.047,0.661-25.866,12.709-30.897c28.559-11.905,48.094-19.157,78.401-19.157c20.976,0,44.787,3.425,58.016,6.591
		c39.591,9.495,80.433,15.142,111.566,18.991c28.3,3.496,48.779,26.622,48.779,53.882c0,3.686-0.378,7.323-1.11,10.796
		c17.269-2.079,33.686-5.031,48.308-8.812l9.188-2.905c20.386-7.583,57.992-17.008,80.079,5.149
		c9.826,9.897,15.236,23.291,15.236,37.795c0,11.221-4.252,39.284-43.488,57.779C536.078,535.818,470.078,566.928,388.984,566.928
		L388.984,566.928z M448.748,269.74c-14.41,0-28.819-5.409-39.779-16.204l-98.15-96.709c-19.725-19.44-29.527-46.299-26.952-73.748
		c2.598-27.52,17.551-52.275,40.984-67.984c36.425-24.425,86.574-18.779,119.173,13.395l5.314,5.22l6.969-6.874
		c17.905-17.622,42.732-27.283,67.843-26.669c25.559,0.686,49.086,11.433,66.283,30.283c32.456,35.622,29.74,93.331-6.118,128.646
		l-95.835,94.441C477.543,264.354,463.134,269.74,448.748,269.74L448.748,269.74z M375.306,47.173
		c-8.551,0-16.937,2.362-24.165,7.205c-11.787,7.866-18.969,19.653-20.244,33.165c-1.252,13.229,3.52,26.221,13.087,35.646
		l98.149,96.709c3.661,3.59,9.543,3.566,13.204,0l95.835-94.441c18-17.717,19.961-46.063,4.37-63.165
		c-8.434-9.26-20.031-14.551-32.622-14.882c-12.52-0.023-24.473,4.299-33.401,13.087l-23.552,23.196
		c-9.188,9.071-23.952,9.071-33.165,0l-21.897-21.566C400.913,52.299,387.944,47.173,375.306,47.173z"/>
</g>
</svg>
