<?xml version="1.0" encoding="utf-8"?>
<!-- Generator: Adobe Illustrator 15.0.2, SVG Export Plug-In . SVG Version: 6.00 Build 0)  -->
<!DOCTYPE svg PUBLIC "-//W3C//DTD SVG 1.1//EN" "http://www.w3.org/Graphics/SVG/1.1/DTD/svg11.dtd">
<svg version="1.1" id="Layer_1" xmlns="http://www.w3.org/2000/svg" xmlns:xlink="http://www.w3.org/1999/xlink" x="0px" y="0px"
	 width="576px" height="576px" viewBox="66.83 66.83 576 576" enable-background="new 66.83 66.83 576 576" xml:space="preserve">
<g>
	<path d="M609.948,581.602H468.216V439.869c0-17.008-11.339-28.347-28.347-28.347s-28.347,11.339-28.347,28.347v141.732H354.83
		V326.484c0-17.008-11.338-28.346-28.347-28.346c-17.008,0-28.346,11.338-28.346,28.346v255.118h-56.693V241.445
		c0-17.008-11.338-28.347-28.347-28.347c-17.008,0-28.346,11.339-28.346,28.347v340.157h-56.693V99.713
		c0-17.008-11.338-28.347-28.346-28.347c-17.009,0-28.347,11.339-28.347,28.347v510.234c0,17.009,11.338,28.347,28.347,28.347
		h510.235c17.008,0,28.346-11.338,28.346-28.347C638.294,592.94,626.956,581.602,609.948,581.602z"/>
	<path d="M609.948,213.098c-17.009,0-28.347,11.339-28.347,28.347v45.354l-65.196-65.196c-5.67-5.67-11.339-8.504-19.843-8.504
		H394.514L289.633,108.217c-11.338-11.338-28.347-11.338-39.685,0c-11.339,11.339-11.339,28.347,0,39.685l113.386,113.386
		c5.669,5.67,11.338,8.504,19.843,8.504h102.047l56.693,56.692h-45.354c-17.009,0-28.347,11.339-28.347,28.347
		s11.338,28.347,28.347,28.347h113.386c14.173,0,28.346-11.339,28.346-28.347V241.445
		C638.294,224.437,626.956,213.098,609.948,213.098z"/>
</g>
</svg>
