<?xml version="1.0" encoding="utf-8"?>
<!-- Generator: Adobe Illustrator 15.0.2, SVG Export Plug-In . SVG Version: 6.00 Build 0)  -->
<!DOCTYPE svg PUBLIC "-//W3C//DTD SVG 1.1//EN" "http://www.w3.org/Graphics/SVG/1.1/DTD/svg11.dtd">
<svg version="1.1" id="Layer_1" xmlns="http://www.w3.org/2000/svg" xmlns:xlink="http://www.w3.org/1999/xlink" x="0px" y="0px"
	 width="516.882px" height="510.227px" viewBox="95.884 28.356 516.882 510.227"
	 enable-background="new 95.884 28.356 516.882 510.227" xml:space="preserve">
<title>Artboard 38</title>
<path d="M610.865,416.408l-67.691-89.914l22.678-14.287c19.441-12.066,25.514-37.552,13.607-57.09l-1.418-2.268
	c-5.664-9.273-14.744-15.951-25.285-18.595c6.434-12.886,5.725-28.186-1.871-40.423l-1.418-2.268
	c-5.715-9.241-14.838-15.86-25.398-18.425c1.369-2.782,2.416-5.712,3.119-8.73c2.525-10.746,0.646-22.056-5.217-31.408l-1.416-2.268
	c-5.703-9.241-14.836-15.847-25.398-18.368c1.438-2.889,2.541-5.932,3.287-9.071c2.525-10.746,0.648-22.055-5.215-31.408
	l-1.418-2.268c-12.127-19.595-37.844-25.649-57.439-13.521c-0.016,0.01-0.031,0.02-0.047,0.029l-21.713,14.343
	c-0.412-23.667-19.934-42.519-43.6-42.106c-5.291,0.093-10.518,1.163-15.417,3.158l-80.617,32.655
	c-7.132,2.845-13.348,7.59-17.972,13.72l-21.09-5.669c-22.175-5.794-44.849,7.485-50.643,29.66c-0.014,0.054-0.027,0.106-0.041,0.16
	v0.624c-3.187,12.125-0.729,25.042,6.689,35.149c-1.268,0.563-2.499,1.207-3.685,1.927c-9.535,5.541-16.455,14.667-19.219,25.342
	v0.681c-3.149,12.072-0.692,24.921,6.689,34.979c-11.56,5.082-20.191,15.132-23.471,27.326v0.623
	c-2.798,10.67-1.227,22.014,4.365,31.521c0.737,1.19,1.474,2.381,2.324,3.515c-11.263,5.233-19.586,15.241-22.677,27.27v0.624
	c-5.933,22.203,7.258,45.011,29.461,50.943c0.101,0.027,0.201,0.054,0.303,0.08l7.823,1.984l-73.36,76.932
	c-3.569,3.734-3.436,9.656,0.299,13.226c1.765,1.688,4.119,2.617,6.562,2.592c2.582,0.024,5.054-1.047,6.803-2.948l80.05-84.756
	l30.048,7.483c3.438,0.925,6.984,1.383,10.545,1.361c18.884-0.033,35.372-12.795,40.139-31.068v-0.68
	c1.989-7.719,1.714-15.848-0.794-23.414h0.794c3.461,0.901,7.023,1.358,10.601,1.36c18.888-0.079,35.359-12.852,40.14-31.124v-0.624
	c2.797-10.669,1.227-22.014-4.366-31.521c-0.695-1.222-1.472-2.396-2.324-3.515c11.352-5.191,19.778-15.199,22.961-27.27v-0.68
	c2.798-10.67,1.227-22.014-4.365-31.521c-0.737-1.19-1.531-2.381-2.324-3.515c11.283-5.207,19.615-15.226,22.676-27.27v-0.624
	c1.563-5.963,1.777-12.199,0.625-18.255l26.191-17.291l2.098-0.851c5.828-2.348,11.059-5.97,15.307-10.602l43.371-28.347
	c10.398-6.98,24.486-4.209,31.467,6.189c0.32,0.477,0.621,0.965,0.904,1.465l1.416,2.268c3.148,5.074,4.166,11.187,2.836,17.008
	c-1.359,5.888-5.012,10.989-10.148,14.173c-0.705,0.492-1.352,1.063-1.928,1.701c-1.645,0.718-3.236,1.552-4.762,2.494
	c-4.432,2.787-5.764,8.638-2.977,13.067c2.787,4.431,8.637,5.764,13.068,2.977c10.596-6.676,24.598-3.497,31.273,7.1
	c0.045,0.071,0.09,0.143,0.133,0.214l1.418,2.268c6.676,10.597,3.498,24.599-7.1,31.274c-0.07,0.045-0.143,0.09-0.213,0.134
	c-0.719,0.454-1.367,1.007-1.928,1.644c-1.646,0.738-3.236,1.591-4.764,2.552c-3.955,3.37-4.43,9.311-1.059,13.267
	c2.6,3.052,6.848,4.121,10.584,2.664c5.061-3.184,11.188-4.204,17.008-2.835c5.908,1.346,11.033,5,14.23,10.148l1.416,2.268
	c6.676,10.597,3.498,24.599-7.1,31.274c-0.07,0.045-0.141,0.089-0.213,0.133c-0.746,0.438-1.416,0.993-1.984,1.645
	c-1.619,0.73-3.191,1.563-4.705,2.494c-4.369,2.85-5.6,8.7-2.75,13.068c2.85,4.367,8.699,5.599,13.068,2.749
	c10.609-6.653,24.605-3.444,31.258,7.166c0.031,0.049,0.063,0.099,0.092,0.147l1.418,2.268c6.689,10.588,3.529,24.595-7.059,31.284
	c-0.066,0.042-0.131,0.083-0.197,0.124L409.89,387.325l-0.568,0.34c-13.941,9.63-30.01,15.737-46.828,17.802
	c-11.59,1.493-22.822,5.045-33.165,10.488c-23.244,13.719-67.521,93.146-72.454,102.047c-2.818,4.367-1.563,10.191,2.804,13.011
	c4.367,2.818,10.192,1.563,13.011-2.804c0.234-0.364,0.444-0.744,0.627-1.137c17.802-32.314,51.364-86.683,65.594-95.073
	c8.503-4.253,17.666-7.032,27.099-8.221c6.18-1.134,12.699-2.381,19.445-4.252l67.295,114.406c1.688,2.877,4.771,4.646,8.107,4.648
	c1.678,0.018,3.326-0.435,4.762-1.304c4.473-2.633,5.969-8.392,3.344-12.869l-65.592-111.401c5.959-2.781,11.652-6.102,17.008-9.921
	l106.809-66.671l68.654,91.332c3.131,4.148,9.033,4.974,13.182,1.842C613.172,426.458,613.996,420.557,610.865,416.408z
	 M254.948,322.242v0.623c-3.082,12.14-15.422,19.481-27.561,16.399c-0.092-0.023-0.185-0.047-0.276-0.072l0,0l-58.847-14.967
	c-12.14-3.082-19.481-15.421-16.399-27.56c0.023-0.093,0.047-0.185,0.071-0.276v-0.681c3.104-12.133,15.456-19.454,27.59-16.351
	c0.102,0.026,0.202,0.053,0.304,0.08l62.362,16.214C252.413,300.163,257.826,311.447,254.948,322.242z M305.972,268.611v0.681
	c-3.119,12.129-15.48,19.434-27.61,16.314c-0.057-0.015-0.113-0.029-0.17-0.044l-30.16-7.767c-1.535-0.623-3.106-1.152-4.705-1.588
	l-58.678-14.967c-12.131-3.111-19.443-15.468-16.333-27.6c0.021-0.079,0.041-0.158,0.063-0.236v-0.624
	c2.594-10.047,11.677-17.052,22.054-17.008c1.916,0.015,3.822,0.281,5.669,0.794l93.26,24.265l0,0
	c5.861,1.496,10.883,5.271,13.946,10.488c3.171,5.176,4.092,11.42,2.552,17.291H305.972z M322.412,205.682v0.623
	c-3.082,12.14-15.421,19.481-27.56,16.399c-0.093-0.023-0.185-0.047-0.276-0.071l-93.316-24.208
	c-12.139-3.082-19.481-15.421-16.399-27.561c0.023-0.092,0.047-0.184,0.072-0.275v-0.624c1.556-5.911,5.387-10.966,10.658-14.06
	c5.138-2.993,11.245-3.848,17.008-2.382l93.203,24.321c12.139,3.082,19.481,15.422,16.399,27.561
	c-0.023,0.092-0.048,0.185-0.072,0.276H322.412z M338.854,142.752v0.624c-3.082,12.139-15.421,19.481-27.561,16.399
	c-0.092-0.023-0.184-0.048-0.275-0.072l-93.487-24.321c-12.125-3.134-19.414-15.505-16.279-27.631
	c0.003-0.012,0.006-0.023,0.009-0.035v-0.68c3.066-12.144,15.396-19.502,27.539-16.436c0.137,0.034,0.273,0.07,0.41,0.107
	l17.858,4.649c-1.777,8.292-1.006,16.928,2.211,24.774c6.547,16.175,22.235,26.776,39.686,26.815
	c5.5,0.014,10.949-1.045,16.044-3.118l33.449-13.436c1.208,4.019,1.306,8.289,0.283,12.358H338.854z M388.801,86.06l-13.721,9.07
	l-76.989,31.182c-12.588,4.409-26.367-2.221-30.777-14.81c-4.117-11.754,1.38-24.712,12.692-29.921l80.673-32.655
	c2.857-1.188,5.92-1.804,9.016-1.814c13.338,0.004,24.148,10.82,24.145,24.158c-0.002,5.404-1.816,10.652-5.152,14.903
	L388.801,86.06z"/>
</svg>
