<?xml version="1.0" encoding="utf-8"?>
<!-- Generator: Adobe Illustrator 15.0.2, SVG Export Plug-In . SVG Version: 6.00 Build 0)  -->
<!DOCTYPE svg PUBLIC "-//W3C//DTD SVG 1.1//EN" "http://www.w3.org/Graphics/SVG/1.1/DTD/svg11.dtd">
<svg version="1.1" id="Layer_1" xmlns="http://www.w3.org/2000/svg" xmlns:xlink="http://www.w3.org/1999/xlink" x="0px" y="0px"
	 width="489.995px" height="362.27px" viewBox="122.835 114.83 489.995 362.27"
	 enable-background="new 122.835 114.83 489.995 362.27" xml:space="preserve">
<title>Icon / blue / claim</title>
<desc>Created with Sketch.</desc>
<g>
	<path d="M443.422,130.655v274.015c0,10.877-11.744,17.7-21.193,12.313c-50.049-28.542-97.984-50.19-143.787-64.965l-6.877-2.15
		c-0.126,10.497,0.176,20.962,0.905,31.396c0.604,8.635,1.354,15.217,2.474,21.965c0.929,5.604,1.799,9.895,4.497,22.51
		c4.966,23.22-12.713,44.726-37.835,48.985c-1.715,0.29-3.443,0.497-5.18,0.618c-25.237,1.765-47.869-14.561-49.505-37.947
		c-0.12-1.727-0.119-3.459,0.004-5.188c0.916-12.866,1.182-17.236,1.321-22.916c0.169-6.838-0.004-13.46-0.608-22.095
		c-1.235-17.666-3.696-35.247-7.385-52.75c-0.372-1.764-0.398-3.521-0.125-5.198c-14.755-2.153-29.708-3.797-44.851-4.932
		c-7.396-0.554-13.114-6.716-13.114-14.133v-85.04c0-7.534,5.896-13.752,13.42-14.152c45.508-2.423,93.125-11.64,142.858-27.683
		c49.857-16.083,97.714-37.695,143.587-64.85C431.478,112.865,443.422,119.675,443.422,130.655z M209.073,334.009l0.532,2.643
		c3.069,16.117,5.173,32.307,6.31,48.565c0.664,9.494,0.86,17.005,0.669,24.772c-0.155,6.279-0.436,10.9-1.384,24.229
		c-0.029,0.401-0.029,0.801-0.001,1.197c0.455,6.513,8.604,12.392,19.249,11.647c0.812-0.057,1.619-0.153,2.418-0.289
		c10.265-1.74,16.176-8.931,14.854-15.109c-2.795-13.068-3.715-17.604-4.742-23.801c-1.271-7.665-2.122-15.13-2.786-24.624
		c-0.96-13.732-1.23-27.512-0.812-41.337c-11.286-2.902-22.715-5.475-34.262-7.724L209.073,334.009z M504.551,337.159l1.057,0.994
		L558,392.642c5.426,5.643,5.25,14.614-0.393,20.04c-5.291,5.086-13.508,5.249-18.984,0.601l-1.057-0.994L485.174,357.8
		c-5.424-5.643-5.248-14.614,0.395-20.04C490.857,332.674,499.074,332.511,504.551,337.159z M415.076,155.051
		c-41.123,22.575-83.771,40.988-127.932,55.233c-28.828,9.3-57.051,16.419-84.665,21.354l0.013,72.49
		c28.9,5.059,57.119,12.029,84.652,20.911c41.186,13.285,83.825,31.812,127.932,55.566V155.051z M174.139,235.961
		c-7.929,0.999-15.805,1.812-23.63,2.438v58.757c7.927,0.747,15.804,1.63,23.634,2.649L174.139,235.961z M599.328,248.764
		c7.828,0,14.174,6.346,14.174,14.174c0,7.827-6.346,14.173-14.174,14.173h-75.59c-7.828,0-14.174-6.346-14.174-14.173
		c0-7.828,6.346-14.174,14.174-14.174H599.328z M557.607,120.438c5.643,5.426,5.818,14.397,0.393,20.04l-52.393,54.488
		c-5.426,5.643-14.396,5.818-20.039,0.394c-5.643-5.426-5.818-14.397-0.395-20.04l52.393-54.489
		C542.992,115.189,551.965,115.012,557.607,120.438z"/>
</g>
</svg>
