<?xml version="1.0" encoding="utf-8"?>
<!-- Generator: Adobe Illustrator 15.0.2, SVG Export Plug-In . SVG Version: 6.00 Build 0)  -->
<!DOCTYPE svg PUBLIC "-//W3C//DTD SVG 1.1//EN" "http://www.w3.org/Graphics/SVG/1.1/DTD/svg11.dtd">
<svg version="1.1" id="Layer_1" xmlns="http://www.w3.org/2000/svg" xmlns:xlink="http://www.w3.org/1999/xlink" x="0px" y="0px"
	 width="261px" height="297px" viewBox="224.83 132.83 261 297" enable-background="new 224.83 132.83 261 297"
	 xml:space="preserve">
<path d="M474.385,133.881h-238.11c-6.236,0-11.339,5.103-11.339,11.339v149.669c0,64.624,45.354,112.252,127.56,133.228
	c2.512,0,2.676,1.491,5.669,0c82.205-20.976,127.559-68.598,127.559-133.228V145.22
	C485.723,138.984,480.622,133.881,474.385,133.881z M463.047,294.889c0,70.299-66.33,99.212-107.717,110.551
	c-41.385-11.339-107.716-40.258-107.716-110.551V156.558h215.433V294.889z M330.953,282.984l-26.646-24.378l35.717-3.969
	l15.307-32.882l15.308,32.882l35.717,3.969l-26.646,24.378l7.37,35.149l-31.748-17.575l-31.747,17.575L330.953,282.984z"/>
</svg>
