<?xml version="1.0" encoding="utf-8"?>
<!-- Generator: Adobe Illustrator 15.0.2, SVG Export Plug-In . SVG Version: 6.00 Build 0)  -->
<!DOCTYPE svg PUBLIC "-//W3C//DTD SVG 1.1//EN" "http://www.w3.org/Graphics/SVG/1.1/DTD/svg11.dtd">
<svg version="1.1" id="Layer_1" xmlns="http://www.w3.org/2000/svg" xmlns:xlink="http://www.w3.org/1999/xlink" x="0px" y="0px"
	 width="547.086px" height="549.945px" viewBox="80.787 8.504 547.086 549.945"
	 enable-background="new 80.787 8.504 547.086 549.945" xml:space="preserve">
<title>Artboard 24</title>
<path d="M566.928,179.716h-58.337V77.669c-0.063-38.195-31.027-69.134-69.222-69.165H150.236
	C111.974,8.41,80.882,39.351,80.788,77.613c-0.001,0.037-0.001,0.075-0.001,0.113v234.085c0.094,38.261,31.188,69.202,69.448,69.108
	c0.001,0,0.001,0,0.001,0h34.753v79.369c-0.015,7.828,6.32,14.185,14.147,14.199c3.774,0.007,7.395-1.492,10.06-4.164l89.009-89.404
	h17.008v37.304c0.03,33.535,27.126,60.758,60.661,60.944h69.959l75.231,75.118c5.527,5.542,14.502,5.554,20.044,0.025
	c2.672-2.665,4.17-6.286,4.163-10.06v-65.084h21.657c33.646-0.031,60.913-27.299,60.944-60.944V240.661
	C627.842,207.015,600.574,179.747,566.928,179.716z M292.308,352.573c-3.762-0.007-7.372,1.482-10.035,4.139l-69.165,69.108v-59.074
	c0-7.827-6.346-14.173-14.173-14.173h-48.699c-22.575,0.125-40.977-18.073-41.102-40.647c-0.001-0.038-0.001-0.076-0.001-0.114
	V77.726c0-22.575,18.3-40.876,40.875-40.876c0.076,0,0.151,0,0.228,0H439.37c22.574,0,40.875,18.301,40.875,40.876v234.085
	c-0.063,22.53-18.345,40.762-40.875,40.762H292.308z M599.527,418.223c0,18.003-14.595,32.598-32.599,32.598l0,0h-35.83
	c-7.827,0-14.173,6.346-14.173,14.174v45.354l-55.219-55.105c-2.663-2.657-6.273-4.146-10.035-4.139h-75.798
	c-18.003,0.157-32.725-14.31-32.882-32.313c-0.002-0.189-0.002-0.38,0-0.569v-37.304h96.378
	c38.173-0.031,69.128-30.936,69.222-69.108V208.063h58.337c18.004,0,32.599,14.595,32.599,32.599V418.223z"/>
<path d="M296.447,82.034c-34.429-0.939-63.101,26.209-64.04,60.638c-0.016,0.575-0.023,1.149-0.023,1.725
	c0,7.827,6.346,14.173,14.174,14.173c7.827,0,14.173-6.346,14.173-14.173c-0.032-9.166,3.674-17.948,10.262-24.321
	c6.539-6.471,15.469-9.939,24.661-9.581c18.774,0.684,33.438,16.458,32.755,35.231c-0.452,12.419-7.642,23.604-18.752,29.172
	c-17.522,8.504-28.753,26.162-29.026,45.638c0,0,0,0,0,0.34v6.689c0,7.828,6.346,14.174,14.173,14.174
	c7.828,0,14.174-6.346,14.174-14.174v-6.463c0.066-8.949,5.24-17.074,13.322-20.92c30.858-15.297,43.473-52.714,28.175-83.571
	C340.261,96.01,319.542,82.7,296.56,81.978L296.447,82.034z"/>
<path d="M294.689,272.125c-7.827,0-14.173,6.346-14.173,14.174v5.158c0,7.828,6.346,14.174,14.173,14.174
	c7.828,0,14.174-6.346,14.174-14.174v-5.158C308.863,278.471,302.517,272.125,294.689,272.125z"/>
</svg>
