<?xml version="1.0" encoding="utf-8"?>
<!-- Generator: Adobe Illustrator 15.0.2, SVG Export Plug-In . SVG Version: 6.00 Build 0)  -->
<!DOCTYPE svg PUBLIC "-//W3C//DTD SVG 1.1//EN" "http://www.w3.org/Graphics/SVG/1.1/DTD/svg11.dtd">
<svg version="1.1"
	 id="Layer_1" xmlns:cc="http://creativecommons.org/ns#" xmlns:dc="http://purl.org/dc/elements/1.1/" xmlns:svg="http://www.w3.org/2000/svg" xmlns:rdf="http://www.w3.org/1999/02/22-rdf-syntax-ns#" xmlns:sodipodi="http://sodipodi.sourceforge.net/DTD/sodipodi-0.dtd" xmlns:inkscape="http://www.inkscape.org/namespaces/inkscape"
	 xmlns="http://www.w3.org/2000/svg" xmlns:xlink="http://www.w3.org/1999/xlink" x="0px" y="0px" width="407.479px"
	 height="496.062px" viewBox="150.591 35.434 407.479 496.062" enable-background="new 150.591 35.434 407.479 496.062"
	 xml:space="preserve">
<g transform="translate(0,-280.06665)">
	<path d="M380.905,315.5c-4.894,0.018-8.877,3.964-8.858,8.858v8.858c0,19.783-15.649,35.434-35.433,35.434h-88.583
		c-17.717,0-32.164,13.154-34.74,28.754c-21.486,7.802-37.519,24.317-47.354,43.617c-10.792,21.178-15.346,46.034-15.346,69.361
		c0,31.029,8.247,59.171,22.215,80.121c13.794,20.692,33.823,34.623,56.661,34.966c36.423,5.188,94.602,13.646,112.511,16.056
		c0.033,0.018,0.101,0.033,0.134,0.067l0.018-0.034c2.608,0.352,11.928,1.715,12.197,1.715c5.744,0,8.858-4.844,8.858-8.858
		c0-4.744-7.303-16.368-0.519-32.319c3.705-8.008,11.202-15.435,22.682-22.042c0.666-0.375,1.285-0.83,1.835-1.365l26.54-26.609
		c1.282-1.279,2.611-3.097,2.611-6.247c0,0,0.001-1.845-0.71-3.512l-25.865-58.496l-7.301-44.377
		c33.475-0.837,60.45-28.248,60.45-61.921c0-34.2-27.808-62.008-62.008-62.008L380.905,315.5z M389.763,334.082
		c22.837,5.013,35.434,24.247,35.434,43.427c0,24.69-19.601,44.292-44.292,44.291h-79.344c-1.747,0.006-3.463,0.532-4.913,1.507
		c-18.626,12.37-41.516,30.563-53.687,51.645h-3.789c-19.464-0.034-35.433,15.968-35.433,35.433
		c0,10.608,3.374,24.367,17.717,32.646v63.808c-13.338-3.352-24.702-12.277-33.945-26.143
		c-11.65-17.476-19.204-42.451-19.204-70.312c0-20.965,4.356-43.455,13.495-61.385c9.138-17.932,22.52-31.146,41.938-36.351
		c3.865-1.048,6.582-4.559,6.574-8.563c0-9.968,7.749-17.717,17.717-17.717h88.583c28.068,0,53.149-22.51,53.149-52.284V334.082z
		 M304.226,439.516h60.312l7.959,48.287c0.101,0.697,0.301,1.377,0.589,2.025l23.91,53.98l-18.287,18.235
		c-7.184-4.738-15.64-7.371-24.377-7.371c-24.356,0-44.292,19.936-44.292,44.291c0,7.447,1.861,14.574,5.208,20.849l-76.074-10.83
		v-72.025c-0.018-4.061-2.788-7.607-6.729-8.581c-6.784-1.674-10.973-8.602-10.986-17.993c0-9.89,7.826-17.717,17.716-17.717h8.858
		c3.234,0.009,6.188-1.734,7.751-4.567C266.809,468.167,284.26,452.98,304.226,439.516L304.226,439.516z M354.331,572.389
		c3.09,0,6.082,0.643,8.927,1.661c-7.151,5.915-13.005,12.631-16.678,20.571c-3.867,8.357-5.444,18.535-3.997,28.166
		c-8.978-4.404-14.827-13.534-14.827-23.824C327.756,584.182,339.549,572.388,354.331,572.389L354.331,572.389z"/>
	<path d="M425.197,572.389c0,4.872,3.989,8.89,8.857,8.858h79.725c4.872,0,8.858-3.986,8.858-8.858c0-4.871-3.986-8.858-8.858-8.858
		h-79.725C429.186,563.5,425.197,567.517,425.197,572.389z"/>
	<path d="M423.535,616.539l88.604,17.721c0.268,0.134,1.641,0.134,1.641,0.134c4.85,0.021,8.858-3.903,8.858-8.858
		c0-0.763,0-6.8-7.032-8.684l-89.188-17.787c-0.168-0.101-1.223-0.101-1.223-0.101c-4.872,0-8.858,3.997-8.858,8.858
		c0,4.882,3.211,7.638,7.197,8.706V616.539z"/>
	<path d="M421.311,651.184l70.884,35.441c1.845,0.921,3.867,0.921,3.867,0.921c4.872,0,8.858-3.986,8.858-8.858
		c0-0.887,0-5.172-4.813-7.951l-70.884-35.376c-1.306-0.697-2.544-0.978-4.027-0.965c-4.872,0-8.858,3.987-8.858,8.858
		C416.338,644.141,416.338,648.708,421.311,651.184L421.311,651.184z"/>
	<path d="M221.457,652.113c-17.974,0-34.309,14.467-47.665,35.104s-23.201,48.729-23.201,80.054v35.433
		c-0.018,4.919,3.939,8.877,8.858,8.858h141.732H407.48c2.333-0.018,4.583-0.941,6.229-2.596l17.733-17.717
		c1.737-1.73,2.611-3.989,2.611-6.263c14.874,0,26.575-11.7,26.575-26.575v-35.433c0-14.875-11.701-26.575-26.575-26.575h-35.433
		c-14.874,0-26.575,11.7-26.575,26.575c-2.356,0.033-4.634,0.975-6.263,2.611l-68.306,68.254H168.306v-26.575
		c0-27.566,8.885-52.662,20.397-70.451c11.514-17.79,26.188-26.99,32.752-26.99h79.724c3.281,0,6.822,1.463,10.987,5.675
		c4.164,4.214,8.469,11.084,12.162,19.948c2.531,6.071,4.796,13.248,6.644,20.969c0.743,2.782,3.651,6.558,8.513,6.558
		c0,0,1.205,0.007,2.337-0.302c4.726-1.266,7.528-6.122,6.263-10.848c-2.021-8.36-4.504-16.222-7.404-23.184
		c-4.313-10.349-9.46-19.056-15.9-25.572c-6.44-6.516-14.611-10.969-23.599-10.969L221.457,652.113z M398.622,714.121h35.433
		c5.366,0,8.858,3.492,8.858,8.858v35.433c0,5.366-3.492,8.858-8.858,8.858h-14.031l-30.26-30.26v-14.031
		C389.763,717.614,393.256,714.121,398.622,714.121z M372.047,744.363l40.624,40.623l-8.824,8.858h-81.281L372.047,744.363z"/>
	<path d="M558.07,634.397c0,4.893-3.966,8.858-8.857,8.858c-0.001,0-0.001,0-0.001,0c-4.892,0-8.858-3.966-8.858-8.858
		c0-4.892,3.967-8.858,8.858-8.858C554.104,625.539,558.07,629.504,558.07,634.397L558.07,634.397z"/>
	<path d="M531.496,696.405c0,4.893-3.966,8.858-8.858,8.858l0,0c-4.893,0-8.858-3.966-8.858-8.858c0-4.892,3.966-8.858,8.858-8.858
		C527.529,687.546,531.496,691.512,531.496,696.405L531.496,696.405z"/>
	<path d="M558.07,572.389c0,4.893-3.966,8.858-8.857,8.858c-0.001,0-0.001,0-0.001,0c-4.892,0-8.858-3.966-8.858-8.858
		c0-4.892,3.967-8.858,8.858-8.858C554.104,563.531,558.07,567.497,558.07,572.389L558.07,572.389z"/>
</g>
</svg>
