<?xml version="1.0" encoding="utf-8"?>
<!-- Generator: Adobe Illustrator 15.0.2, SVG Export Plug-In . SVG Version: 6.00 Build 0)  -->
<!DOCTYPE svg PUBLIC "-//W3C//DTD SVG 1.1//EN" "http://www.w3.org/Graphics/SVG/1.1/DTD/svg11.dtd">
<svg version="1.1" id="Layer_1" xmlns="http://www.w3.org/2000/svg" xmlns:xlink="http://www.w3.org/1999/xlink" x="0px" y="0px"
	 width="542.359px" height="525.503px" viewBox="83.112 20.749 542.359 525.503"
	 enable-background="new 83.112 20.749 542.359 525.503" xml:space="preserve">
<title>84 all</title>
<path d="M529.227,84.245V37.757c0-9.393-7.614-17.008-17.008-17.008h-412.1c-9.394,0-17.008,7.615-17.008,17.008v380.126
	c0,9.393,7.614,17.007,17.008,17.007h248.541c15.756,75.62,89.829,124.149,165.449,108.394
	c75.619-15.756,124.148-89.829,108.393-165.448c-10.2-48.957-45.764-88.743-93.275-104.349V84.245z M117.128,54.765h378.084v29.48
	H117.128V54.765z M591.533,406.261c0.031,58.456-47.332,105.87-105.789,105.901c-58.456,0.031-105.87-47.332-105.901-105.788
	c-0.032-58.457,47.331-105.871,105.788-105.902c0.02,0,0.038,0,0.057,0c58.432,0.063,105.783,47.414,105.846,105.846V406.261z
	 M495.155,266.796c-3.175,0-6.35-0.34-9.524-0.34c-21.114-0.021-41.957,4.768-60.944,14.003H299.962v34.016h80.391
	c-21.018,24.011-33.146,54.514-34.355,86.4H117.128V118.261h378.084L495.155,266.796z"/>
<rect x="300.302" y="171.325" width="173.253" height="34.016"/>
<polygon points="271.445,162.368 247.18,138.5 191.735,195.08 163.332,167.13 139.465,191.395 192.188,243.212 "/>
<polygon points="191.735,304.271 163.332,276.321 139.465,300.585 192.188,352.403 271.445,271.502 247.18,247.691 "/>
<polygon points="441.127,389.706 417.26,413.971 469.984,465.788 549.24,384.888 524.975,361.076 469.53,417.656 "/>
</svg>
