<?xml version="1.0" encoding="utf-8"?>
<!-- Generator: Adobe Illustrator 15.0.2, SVG Export Plug-In . SVG Version: 6.00 Build 0)  -->
<!DOCTYPE svg PUBLIC "-//W3C//DTD SVG 1.1//EN" "http://www.w3.org/Graphics/SVG/1.1/DTD/svg11.dtd">
<svg version="1.1" id="Layer_1" xmlns="http://www.w3.org/2000/svg" xmlns:xlink="http://www.w3.org/1999/xlink" x="0px" y="0px"
	 width="500px" height="500px" viewBox="0 0 500 500" enable-background="new 0 0 500 500" xml:space="preserve">
<g>
	<g>
		<linearGradient id="SVGID_1_" gradientUnits="userSpaceOnUse" x1="354.3672" y1="26.833" x2="145.483" y2="474.7865">
			<stop  offset="0" style="stop-color:#ADDAFE"/>
			<stop  offset="1" style="stop-color:#48ACFD"/>
		</linearGradient>
		<path fill="url(#SVGID_1_)" d="M471.91,202.318c-12.443,0-23.017,8.153-26.662,19.396h-5.657
			c-4.71-30.934-16.917-60.155-35.636-85.31l6.798-6.798c3.902,2,8.254,3.06,12.767,3.06c7.484,0,14.518-2.917,19.81-8.208
			c10.923-10.923,10.923-28.699,0-39.622L415.9,57.408c-5.295-5.295-12.329-8.208-19.813-8.208c-7.484,0-14.519,2.913-19.813,8.208
			c-5.287,5.291-8.204,12.325-8.204,19.809c0,4.513,1.057,8.861,3.061,12.763l-6.794,6.798
			c-25.479-18.963-55.07-31.229-86.393-35.813v-5.477c11.243-3.645,19.396-14.219,19.396-26.662
			c0-15.448-12.568-28.017-28.017-28.017h-38.795c-15.448,0-28.017,12.569-28.017,28.017c0,12.443,8.151,23.017,19.396,26.662v5.477
			c-31.324,4.584-60.915,16.85-86.392,35.813l-6.796-6.798c2.001-3.902,3.06-8.25,3.06-12.763c0-7.484-2.915-14.518-8.206-19.809
			c-5.291-5.295-12.327-8.208-19.811-8.208c-7.484,0-14.52,2.913-19.811,8.208L56.52,84.836c-10.921,10.923-10.921,28.699,0,39.622
			c5.293,5.291,12.329,8.208,19.813,8.208c4.513,0,8.861-1.061,12.765-3.06l6.798,6.798c-18.719,25.155-30.926,54.376-35.636,85.31
			h-5.657c-3.643-11.243-14.217-19.396-26.66-19.396c-15.448,0-28.017,12.569-28.017,28.017v38.793
			c0,15.448,12.569,28.017,28.017,28.017c12.443,0,23.017-8.153,26.66-19.396h5.316c4.459,31.726,16.782,61.684,35.975,87.47
			l-6.796,6.794c-3.904-1.999-8.252-3.061-12.765-3.061c-7.484,0-14.52,2.917-19.813,8.209
			c-10.921,10.923-10.921,28.698,0.002,39.622l27.43,27.428c5.291,5.295,12.327,8.208,19.811,8.208
			c7.484,0,14.52-2.913,19.811-8.208c5.291-5.291,8.206-12.325,8.206-19.81c0-4.512-1.059-8.86-3.06-12.762l6.796-6.799
			c25.477,18.963,55.068,31.229,86.392,35.813v5.476c-11.245,3.646-19.396,14.22-19.396,26.662
			c0,15.448,12.569,28.018,28.017,28.018h38.795c15.448,0,28.017-12.569,28.017-28.018c0-12.442-8.153-23.017-19.396-26.662v-5.476
			c31.322-4.584,60.913-16.851,86.393-35.813l6.794,6.799c-2.004,3.901-3.061,8.25-3.061,12.762c0,7.484,2.917,14.519,8.204,19.81
			c5.295,5.295,12.329,8.208,19.813,8.208c7.483,0,14.518-2.913,19.813-8.208l27.429-27.428c10.923-10.924,10.923-28.699,0-39.622
			c-5.292-5.292-12.325-8.209-19.81-8.209c-4.513,0-8.864,1.062-12.767,3.061l-6.798-6.794c19.194-25.786,31.52-55.744,35.977-87.47
			h5.316c3.646,11.243,14.219,19.396,26.662,19.396c15.448,0,28.017-12.568,28.017-28.017v-38.793
			C499.927,214.887,487.358,202.318,471.91,202.318z M482.686,269.129c0,5.943-4.836,10.775-10.775,10.775
			c-5.943,0-10.776-4.832-10.776-10.775v-8.621h-36.654l-0.774,7.771c-3.355,33.813-16.467,65.707-37.922,92.238l-4.879,6.032
			l28.901,28.901l6.095-6.1c4.075-4.074,11.168-4.074,15.238,0c4.201,4.201,4.201,11.041,0,15.242l-27.428,27.428
			c-4.075,4.075-11.172,4.075-15.246,0c-2.033-2.037-3.153-4.739-3.153-7.619c0-2.879,1.12-5.581,3.153-7.618l6.099-6.096
			l-28.896-28.896l-6.028,4.874c-26.249,21.224-57.789,34.298-91.216,37.813l-7.72,0.813v36.727h8.621
			c5.939,0,10.775,4.832,10.775,10.775s-4.836,10.776-10.775,10.776h-38.795c-5.941,0-10.776-4.833-10.776-10.776
			s4.834-10.775,10.776-10.775h8.621V425.29l-7.72-0.813c-33.428-3.515-64.971-16.589-91.216-37.813l-6.032-4.874l-28.895,28.896
			l6.097,6.096c2.035,2.037,3.155,4.739,3.155,7.618c0,2.88-1.12,5.582-3.155,7.619c-4.075,4.075-11.167,4.075-15.242,0
			l-27.428-27.428c-4.201-4.201-4.201-11.041,0-15.242c4.068-4.074,11.163-4.074,15.235,0l6.097,6.1l28.897-28.901l-4.876-6.032
			c-21.453-26.531-34.567-58.425-37.924-92.238l-0.772-7.771H38.719v8.621c0,5.943-4.834,10.775-10.776,10.775
			s-10.776-4.832-10.776-10.775v-38.793c0-5.943,4.834-10.776,10.776-10.776s10.776,4.833,10.776,10.776v8.621h36.814l0.853-7.669
			c3.679-33.064,16.709-64.251,37.682-90.185l4.876-6.032l-28.897-28.901l-6.097,6.1c-4.072,4.074-11.167,4.074-15.235,0
			c-4.201-4.201-4.201-11.041-0.002-15.242l27.43-27.428c4.075-4.075,11.167-4.075,15.242,0c2.035,2.037,3.155,4.74,3.155,7.619
			c0,2.879-1.12,5.582-3.155,7.619l-6.097,6.095l28.895,28.897l6.032-4.874c26.245-21.224,57.788-34.298,91.216-37.813l7.72-0.813
			V39.603h-8.621c-5.941,0-10.776-4.833-10.776-10.776c0-5.944,4.834-10.776,10.776-10.776h38.795
			c5.939,0,10.775,4.832,10.775,10.776c0,5.943-4.836,10.776-10.775,10.776h-8.621v36.726l7.72,0.813
			c33.427,3.515,64.967,16.589,91.216,37.813l6.028,4.874l28.896-28.897l-6.099-6.095c-2.033-2.038-3.153-4.74-3.153-7.619
			c0-2.879,1.12-5.582,3.153-7.619c4.074-4.075,11.171-4.075,15.246,0l27.428,27.428c4.201,4.201,4.201,11.041,0,15.242
			c-4.07,4.074-11.163,4.074-15.238,0l-6.095-6.1l-28.901,28.901l4.879,6.032c20.975,25.934,34.003,57.121,37.682,90.185
			l0.854,7.669h36.814v-8.621c0-5.943,4.833-10.776,10.776-10.776c5.939,0,10.775,4.833,10.775,10.776V269.129z M211.132,118.684
			c-30.318,0-54.982,24.469-54.982,54.544c0,30.076,24.664,54.544,54.982,54.544c30.317,0,54.984-24.469,54.984-54.544
			C266.116,143.152,241.45,118.684,211.132,118.684z M211.132,210.531c-20.811,0-37.741-16.732-37.741-37.303
			c0-20.571,16.93-37.303,37.741-37.303s37.741,16.732,37.741,37.303C248.873,193.799,231.943,210.531,211.132,210.531z
			 M326.516,196.265c-30.319,0-54.981,24.469-54.981,54.544c0,30.075,24.662,54.544,54.981,54.544
			c30.32,0,54.982-24.469,54.982-54.544C381.498,220.734,356.836,196.265,326.516,196.265z M326.516,288.112
			c-20.811,0-37.74-16.731-37.74-37.303c0-20.571,16.93-37.303,37.74-37.303c20.812,0,37.741,16.732,37.741,37.303
			C364.257,271.381,347.327,288.112,326.516,288.112z M211.132,261.067c-30.318,0-54.982,24.469-54.982,54.545
			c0,30.075,24.664,54.544,54.982,54.544c30.317,0,54.984-24.469,54.984-54.544C266.116,285.536,241.45,261.067,211.132,261.067z
			 M211.132,352.915c-20.811,0-37.741-16.732-37.741-37.303c0-20.571,16.93-37.304,37.741-37.304s37.741,16.732,37.741,37.304
			C248.873,336.183,231.943,352.915,211.132,352.915z"/>
	</g>
</g>
</svg>
