<?xml version="1.0" encoding="utf-8"?>
<!-- Generator: Adobe Illustrator 15.0.2, SVG Export Plug-In . SVG Version: 6.00 Build 0)  -->
<!DOCTYPE svg PUBLIC "-//W3C//DTD SVG 1.1//EN" "http://www.w3.org/Graphics/SVG/1.1/DTD/svg11.dtd">
<svg version="1.1" id="Layer_1" xmlns="http://www.w3.org/2000/svg" xmlns:xlink="http://www.w3.org/1999/xlink" x="0px" y="0px"
	 width="733.359px" height="195.459px" viewBox="0 0 733.359 195.459" enable-background="new 0 0 733.359 195.459"
	 xml:space="preserve">
<g>
	<g>
		<path fill="#1563A2" d="M338.48,189.507c-15.241,0-34.018-10.11-49.004-26.386c-16.883-18.336-26.181-40.904-26.181-63.548
			c0-57.994,26.701-89.933,75.185-89.933c66.076,0,75.185,43.224,75.185,89.933c0,22.643-9.3,45.211-26.186,63.548
			C372.492,179.396,353.716,189.507,338.48,189.507z M338.48,12.641c-62.807,0-72.185,54.466-72.185,86.933
			c0,47.987,43.68,86.934,72.185,86.934s72.185-38.946,72.185-86.934C410.665,47.394,398.389,12.641,338.48,12.641z"/>
		<g>
			<path fill="#FFFFFF" d="M406.969,129.034c-12.701,34.354-45.186,58.973-68.489,58.973c-23.313,0-55.793-24.618-68.491-58.974
				c35.92-0.894,57.585-16.026,68.491-16.026C349.387,113.007,371.043,128.146,406.969,129.034z M266.232,62.709h144.494
				C406.825,30.1,412.175,7.452,338.48,7.452C264.772,7.452,270.13,30.1,266.232,62.709z"/>
			<path fill="#1563A2" d="M338.48,189.507c-23.055,0-56.643-24.091-69.898-59.953l-0.727-1.968l2.097-0.053
				c22.622-0.563,39.426-6.798,51.695-11.351c7.041-2.612,12.602-4.676,16.833-4.676c4.23,0,9.79,2.063,16.828,4.677
				c12.269,4.554,29.07,10.791,51.698,11.351l2.098,0.053l-0.728,1.968C395.118,165.416,361.531,189.507,338.48,189.507z
				 M272.142,130.464c13.287,33.61,44.708,56.043,66.338,56.043c21.626,0,53.046-22.432,66.336-56.042
				c-22.057-0.892-38.469-6.983-50.552-11.469c-6.756-2.508-12.092-4.489-15.784-4.489s-9.031,1.98-15.79,4.489
				C310.606,123.479,294.193,129.569,272.142,130.464z M412.417,64.209H264.542l0.201-1.679c0.359-3.005,0.641-5.935,0.912-8.768
				c2.663-27.756,4.588-47.811,72.825-47.811c68.229,0,70.156,20.056,72.822,47.814c0.272,2.832,0.554,5.76,0.913,8.764
				L412.417,64.209z M267.916,61.209h141.127c-0.273-2.448-0.503-4.834-0.726-7.155c-1.339-13.932-2.396-24.936-11.097-32.683
				c-9.517-8.473-28.182-12.419-58.74-12.419c-30.563,0-49.229,3.945-58.746,12.418c-8.7,7.746-9.756,18.749-11.093,32.68
				C268.418,56.372,268.189,58.759,267.916,61.209z"/>
		</g>
		<path fill="#FFFFFF" d="M338.473,156.341c-16.289,0-21.952-3.2-22.185-3.337l1.503-2.597c0.052,0.029,5.396,2.934,20.682,2.934
			c15.292,0,20.638-2.87,20.689-2.899l1.489,2.604C360.419,153.181,354.759,156.341,338.473,156.341z"/>
		<path fill="#1563A2" d="M313.071,90.059c-0.035-0.037-3.549-3.734-13.662-3.734c-10.117,0-13.634,3.652-13.668,3.688l-2.235-2
			c0.169-0.191,4.275-4.688,15.903-4.688c11.633,0,15.74,4.554,15.909,4.747l-2.26,1.973l1.13-0.986L313.071,90.059z"/>
		<path fill="#1563A2" d="M392.758,90.032c-0.032-0.037-3.364-3.708-12.96-3.708c-9.61,0-12.924,3.612-12.955,3.648l-2.293-1.934
			c0.162-0.192,4.103-4.715,15.248-4.715c11.151,0,15.091,4.579,15.253,4.773L392.758,90.032z"/>
	</g>
	<g>
		<path fill="#1563A2" stroke="#1563A2" stroke-width="3" stroke-miterlimit="10" d="M70.822,56.97c3.68,1.119,7.32,2.72,10.92,4.8
			l-0.721,2.159h-0.84c-3.359-2-6.739-3.539-10.139-4.619c-3.4-1.08-6.7-1.62-9.9-1.62c-10.64,0-18.799,3.18-24.479,9.539
			c-5.68,6.36-8.52,15.54-8.52,27.539c0,11.52,2.479,20.339,7.439,26.459s12.039,9.18,21.239,9.18c1.92,0,3.7-0.06,5.34-0.181
			c1.64-0.119,3.34-0.319,5.1-0.6c1.76-0.279,3.62-0.64,5.579-1.08c1.961-0.439,4.18-1.02,6.66-1.74v-22.918l2.4-0.24v24.959
			c-2.641,0.72-5.021,1.34-7.141,1.859c-2.119,0.521-4.14,0.94-6.06,1.26c-1.92,0.32-3.819,0.561-5.699,0.721s-3.9,0.279-6.06,0.359
			c-10.08,0-17.8-3.279-23.159-9.84c-5.36-6.559-8.04-15.998-8.04-28.318c0-12.719,3.04-22.459,9.12-29.219
			c6.079-6.76,14.839-10.14,26.278-10.14C63.583,55.289,67.142,55.85,70.822,56.97z"/>
		<path fill="#1563A2" stroke="#1563A2" stroke-width="3" stroke-miterlimit="10" d="M107.422,126.866
			c-3.76-3.8-5.56-9.26-5.399-16.379l0.12-8.88V71.488h2.52l-0.239,38.879c-0.08,6.479,1.539,11.419,4.859,14.819
			s8.14,5.1,14.459,5.1c6.32,0,11.14-1.699,14.459-5.1c3.32-3.4,4.98-8.34,4.98-14.819V71.488h2.4v38.999
			c0.16,7.039-1.681,12.479-5.521,16.318s-9.279,5.76-16.319,5.76C116.623,132.565,111.183,130.666,107.422,126.866z"/>
		<path fill="#1563A2" stroke="#1563A2" stroke-width="3" stroke-miterlimit="10" d="M171.621,132.206h-2.4V71.488h2.4V132.206z"/>
		<path fill="#1563A2" stroke="#1563A2" stroke-width="3" stroke-miterlimit="10" d="M191.541,132.206h-2.76l24.84-60.718h2.52
			l16.199,42.839l6.6,17.879h-2.76l-1.2-4.32l-4.8-12.719h-31.918l-5.28,12.719L191.541,132.206z M199.22,112.887h30.119
			L214.94,75.209h-0.36L199.22,112.887z"/>
	</g>
	<g>
		<path fill="#1563A2" stroke="#1563A2" stroke-width="3" stroke-miterlimit="10" d="M481.757,57.089c3.641,1.2,6.94,2.96,9.9,5.28
			l-0.84,2.04h-0.84c-2.721-2.16-5.74-3.82-9.061-4.979c-3.319-1.16-6.779-1.74-10.379-1.74c-9.6,0-16.899,3.14-21.899,9.42
			c-4.999,6.279-7.499,15.339-7.499,27.179c0,11.68,2.399,20.619,7.199,26.818s11.72,9.3,20.76,9.3c3.84,0,7.659-0.7,11.459-2.101
			c3.8-1.399,7.3-3.379,10.5-5.939l0.84,0.24l-0.24,2.16c-3.359,2.56-6.98,4.539-10.859,5.939c-3.881,1.4-7.74,2.1-11.58,2.1
			c-9.92,0-17.479-3.319-22.679-9.959c-5.2-6.641-7.8-16.199-7.8-28.679c0-12.56,2.72-22.18,8.16-28.859
			c5.439-6.68,13.318-10.02,23.639-10.02C474.378,55.289,478.119,55.89,481.757,57.089z"/>
		<path fill="#1563A2" stroke="#1563A2" stroke-width="3" stroke-miterlimit="10" d="M509.359,124.826
			c-4.439-5.239-6.66-12.819-6.66-22.739c0-9.999,2.28-17.679,6.84-23.038c4.561-5.36,11.199-8.04,19.92-8.04
			c8.318,0,14.679,2.58,19.078,7.739c4.4,5.16,6.6,12.54,6.6,22.14c0,10.239-2.299,18.1-6.898,23.578
			c-4.601,5.48-11.221,8.221-19.859,8.221C520.138,132.687,513.798,130.065,509.359,124.826z M511.398,80.788
			c-4.119,4.84-6.18,11.899-6.18,21.18c0,9.199,1.98,16.238,5.94,21.119c3.96,4.879,9.7,7.319,17.22,7.319
			c7.84,0,13.859-2.521,18.059-7.56c4.2-5.04,6.3-12.279,6.3-21.719c0-8.96-2-15.8-5.999-20.52c-4-4.72-9.801-7.08-17.4-7.08
			C521.498,73.528,515.519,75.948,511.398,80.788z"/>
		<path fill="#1563A2" stroke="#1563A2" stroke-width="3" stroke-miterlimit="10" d="M589.097,132.206l-22.799-60.718h2.76
			l1.32,4.32l19.919,52.678h0.36l21.599-52.678l1.44-4.32h2.76l-24.839,60.718H589.097z"/>
		<path fill="#1563A2" stroke="#1563A2" stroke-width="3" stroke-miterlimit="10" d="M635.176,132.206h-2.399V71.488h2.399V132.206z
			"/>
		<path fill="#1563A2" stroke="#1563A2" stroke-width="3" stroke-miterlimit="10" d="M701.595,78.509
			c4.68,4.999,7.02,12.14,7.02,21.418c0,10.561-2.44,18.66-7.32,24.3c-4.879,5.64-11.92,8.46-21.119,8.46
			c-0.64,0-1.779-0.021-3.42-0.061c-1.64-0.04-3.42-0.08-5.34-0.12s-3.819-0.079-5.699-0.12c-1.88-0.039-3.38-0.1-4.5-0.18V71.488
			l20.039-0.479C690.135,71.009,696.916,73.509,701.595,78.509z M699.794,80.309c-4.279-4.52-10.499-6.78-18.659-6.78
			c-0.479,0-1.479,0.021-2.999,0.061c-1.521,0.04-3.201,0.08-5.041,0.12s-3.639,0.1-5.399,0.18c-1.76,0.08-3.12,0.12-4.079,0.12
			v55.918c1.039,0.08,2.379,0.139,4.02,0.18c1.64,0.039,3.3,0.08,4.979,0.119c1.681,0.041,3.24,0.08,4.68,0.121
			c1.44,0.039,2.44,0.06,3,0.06c8.319,0,14.72-2.601,19.199-7.8s6.72-12.72,6.72-22.559
			C706.214,91.408,704.075,84.828,699.794,80.309z"/>
	</g>
	<g>
		<path fill="#FFFFFF" d="M330.646,102.174c0,0,0.883,7.458-2.225,13.146"/>
		<path fill="#1563A2" d="M329.738,116.038l-2.633-1.438c2.845-5.208,2.06-12.181,2.052-12.25l2.979-0.354
			C332.174,102.321,333.037,110,329.738,116.038z"/>
	</g>
	<g>
		<path fill="#FFFFFF" d="M346.314,102.174c0,0-0.883,7.458,2.225,13.146"/>
		<path fill="#1563A2" d="M347.222,116.038c-3.299-6.038-2.437-13.717-2.397-14.041l2.979,0.352
			c-0.009,0.07-0.782,7.066,2.051,12.252L347.222,116.038z"/>
	</g>
</g>
</svg>
