<?xml version="1.0" encoding="utf-8"?>
<!-- Generator: Adobe Illustrator 15.0.2, SVG Export Plug-In . SVG Version: 6.00 Build 0)  -->
<!DOCTYPE svg PUBLIC "-//W3C//DTD SVG 1.1//EN" "http://www.w3.org/Graphics/SVG/1.1/DTD/svg11.dtd">
<svg version="1.1" id="Layer_1" xmlns="http://www.w3.org/2000/svg" xmlns:xlink="http://www.w3.org/1999/xlink" x="0px" y="0px"
	 width="733.359px" height="195.459px" viewBox="0 0 733.359 195.459" enable-background="new 0 0 733.359 195.459"
	 xml:space="preserve">
<g>
	<g>
		<path fill="#1563A2" d="M338.48,189.507c-15.241,0-34.018-10.11-49.003-26.385c-16.884-18.336-26.182-40.904-26.182-63.548
			c0-57.994,26.701-89.933,75.185-89.933c66.076,0,75.185,43.224,75.185,89.933c0,22.643-9.3,45.211-26.186,63.548
			C372.492,179.396,353.716,189.507,338.48,189.507z M338.48,12.641c-62.807,0-72.185,54.466-72.185,86.933
			c0,47.987,43.68,86.933,72.185,86.933s72.185-38.945,72.185-86.933C410.665,47.394,398.389,12.641,338.48,12.641z"/>
		<g>
			<path fill="#FFFFFF" d="M406.969,129.034c-12.701,34.355-45.186,58.973-68.489,58.973c-23.313,0-55.793-24.617-68.491-58.973
				c35.92-0.894,57.585-16.027,68.491-16.027C349.387,113.007,371.043,128.146,406.969,129.034z M264.795,71.007
				c0,0,83.653,7.017,99.004-8.333c15.35-15.35,6.016-9.983,15.999,0c15.648,15.649,30.928,0.035,30.928,0.035
				C406.825,30.1,391.314,7.452,338.48,7.452C284.629,7.452,268.694,38.398,264.795,71.007z"/>
			<path fill="#1563A2" d="M338.48,189.507c-23.055,0-56.643-24.091-69.897-59.952l-0.728-1.968l2.097-0.053
				c22.622-0.563,39.426-6.798,51.695-11.351c7.041-2.613,12.603-4.677,16.833-4.677c4.231,0,9.79,2.063,16.829,4.677
				c12.268,4.554,29.069,10.791,51.697,11.351l2.098,0.053l-0.728,1.968C395.118,165.416,361.532,189.507,338.48,189.507z
				 M272.142,130.465c13.287,33.609,44.708,56.042,66.338,56.042c21.627,0,53.046-22.432,66.336-56.042
				c-22.057-0.892-38.469-6.983-50.551-11.469c-6.757-2.508-12.093-4.489-15.785-4.489s-9.03,1.981-15.789,4.489
				C310.607,123.48,294.193,129.57,272.142,130.465z M305.488,74.108C305.486,74.108,305.489,74.108,305.488,74.108
				c-21.425,0-40.626-1.59-40.817-1.606l-1.549-0.13l0.185-1.543c5.219-43.655,29.809-64.877,75.174-64.877
				c46.939,0,68.991,16.921,73.735,56.579l0.086,0.713l-0.503,0.514c-0.295,0.302-7.333,7.381-17.007,7.381
				c-5.74,0-11.142-2.491-16.054-7.404c-3.706-3.706-4.939-6.887-5.602-8.597c-0.528,0.521-1.258,1.298-2.053,2.146
				c-1.441,1.537-3.415,3.642-6.224,6.451C357.977,70.618,337.999,74.108,305.488,74.108z M266.48,69.634
				c4.982,0.373,21.225,1.474,39.007,1.474c31.243,0,51.04-3.283,57.252-9.494c2.774-2.775,4.729-4.86,6.156-6.382
				c2.638-2.813,3.434-3.661,4.633-3.661c1.443,0,1.955,1.319,2.405,2.482c0.623,1.609,1.666,4.301,4.926,7.561
				c4.329,4.33,9.018,6.525,13.933,6.525c7.062,0,12.682-4.505,14.354-6.002c-3.308-26.428-14.533-53.185-70.665-53.185
				C295.449,8.952,271.882,28.808,266.48,69.634z"/>
		</g>
		<path fill="#FFFFFF" d="M338.473,156.341c-16.289,0-21.951-3.199-22.185-3.336l1.503-2.597c0.052,0.029,5.396,2.933,20.682,2.933
			c15.292,0,20.638-2.87,20.689-2.899l1.489,2.604C360.419,153.181,354.759,156.341,338.473,156.341z"/>
		<path fill="#1563A2" d="M313.071,90.059c-0.034-0.037-3.549-3.734-13.662-3.734c-10.117,0-13.634,3.652-13.668,3.688l-2.235-2
			c0.169-0.191,4.276-4.688,15.903-4.688c11.634,0,15.74,4.553,15.91,4.747l-2.261,1.973l1.13-0.986L313.071,90.059z"/>
		<path fill="#1563A2" d="M392.758,90.033c-0.032-0.037-3.364-3.708-12.96-3.708c-9.61,0-12.924,3.612-12.955,3.648l-2.293-1.934
			c0.162-0.192,4.103-4.714,15.248-4.714c11.151,0,15.091,4.579,15.253,4.773L392.758,90.033z"/>
	</g>
	<g>
		<path fill="#1563A2" stroke="#1563A2" stroke-width="3" stroke-miterlimit="10" d="M70.822,56.97c3.68,1.12,7.32,2.72,10.92,4.8
			l-0.72,2.16h-0.841c-3.359-2-6.739-3.54-10.139-4.62c-3.4-1.08-6.7-1.62-9.9-1.62c-10.64,0-18.799,3.18-24.479,9.54
			c-5.68,6.36-8.52,15.54-8.52,27.539c0,11.52,2.479,20.339,7.439,26.459c4.96,6.119,12.039,9.18,21.239,9.18
			c1.92,0,3.7-0.061,5.34-0.181s3.34-0.319,5.1-0.601c1.76-0.279,3.62-0.639,5.58-1.079s4.18-1.021,6.659-1.74v-22.919l2.4-0.24
			v24.959c-2.641,0.721-5.021,1.34-7.14,1.86c-2.12,0.521-4.141,0.94-6.061,1.26s-3.819,0.56-5.699,0.72s-3.9,0.28-6.06,0.36
			c-10.08,0-17.8-3.28-23.159-9.84c-5.36-6.56-8.04-15.999-8.04-28.319c0-12.719,3.04-22.459,9.12-29.219
			c6.079-6.76,14.839-10.14,26.278-10.14C63.583,55.29,67.142,55.85,70.822,56.97z"/>
		<path fill="#1563A2" stroke="#1563A2" stroke-width="3" stroke-miterlimit="10" d="M107.422,126.866
			c-3.76-3.799-5.56-9.26-5.399-16.379l0.12-8.879v-30.12h2.52l-0.239,38.879c-0.08,6.479,1.54,11.419,4.859,14.818
			c3.32,3.4,8.14,5.1,14.459,5.1c6.32,0,11.14-1.699,14.46-5.1c3.319-3.399,4.979-8.34,4.979-14.818V71.489h2.4v38.999
			c0.16,7.04-1.681,12.479-5.521,16.319s-9.279,5.76-16.319,5.76C116.623,132.566,111.183,130.667,107.422,126.866z"/>
		<path fill="#1563A2" stroke="#1563A2" stroke-width="3" stroke-miterlimit="10" d="M171.621,132.206h-2.399V71.489h2.399V132.206z
			"/>
		<path fill="#1563A2" stroke="#1563A2" stroke-width="3" stroke-miterlimit="10" d="M191.542,132.206h-2.761l24.84-60.717h2.52
			l16.199,42.838l6.6,17.879h-2.76l-1.2-4.319l-4.8-12.72h-31.918l-5.28,12.72L191.542,132.206z M199.221,112.888h30.118
			L214.94,75.209h-0.359L199.221,112.888z"/>
	</g>
	<g>
		<path fill="#1563A2" stroke="#1563A2" stroke-width="3" stroke-miterlimit="10" d="M481.757,57.089c3.641,1.2,6.94,2.96,9.9,5.28
			l-0.84,2.04h-0.84c-2.721-2.16-5.74-3.82-9.061-4.979c-3.319-1.16-6.779-1.74-10.379-1.74c-9.6,0-16.899,3.14-21.899,9.42
			c-4.999,6.28-7.499,15.339-7.499,27.179c0,11.68,2.399,20.619,7.199,26.818c4.8,6.2,11.72,9.301,20.76,9.301
			c3.84,0,7.659-0.701,11.459-2.101s7.3-3.38,10.5-5.94l0.84,0.24l-0.24,2.16c-3.359,2.561-6.98,4.54-10.859,5.939
			c-3.881,1.4-7.74,2.101-11.58,2.101c-9.92,0-17.479-3.319-22.679-9.96c-5.2-6.64-7.8-16.199-7.8-28.679
			c0-12.56,2.72-22.179,8.16-28.859c5.439-6.68,13.318-10.02,23.639-10.02C474.378,55.29,478.119,55.89,481.757,57.089z"/>
		<path fill="#1563A2" stroke="#1563A2" stroke-width="3" stroke-miterlimit="10" d="M509.359,124.827
			c-4.439-5.24-6.66-12.82-6.66-22.739c0-10,2.28-17.679,6.84-23.039c4.561-5.36,11.199-8.04,19.92-8.04
			c8.318,0,14.679,2.58,19.078,7.739c4.4,5.16,6.6,12.54,6.6,22.139c0,10.24-2.299,18.1-6.898,23.579
			c-4.601,5.479-11.221,8.22-19.859,8.22C520.138,132.687,513.798,130.066,509.359,124.827z M511.398,80.789
			c-4.119,4.84-6.18,11.899-6.18,21.179c0,9.199,1.98,16.239,5.94,21.119s9.7,7.32,17.22,7.32c7.84,0,13.859-2.521,18.059-7.561
			c4.2-5.039,6.3-12.279,6.3-21.719c0-8.96-2-15.799-5.999-20.519c-4-4.72-9.801-7.08-17.4-7.08
			C521.498,73.529,515.519,75.949,511.398,80.789z"/>
		<path fill="#1563A2" stroke="#1563A2" stroke-width="3" stroke-miterlimit="10" d="M589.097,132.206l-22.799-60.717h2.76
			l1.32,4.32l19.919,52.678h0.36l21.599-52.678l1.44-4.32h2.76l-24.839,60.717H589.097z"/>
		<path fill="#1563A2" stroke="#1563A2" stroke-width="3" stroke-miterlimit="10" d="M635.176,132.206h-2.399V71.489h2.399V132.206z
			"/>
		<path fill="#1563A2" stroke="#1563A2" stroke-width="3" stroke-miterlimit="10" d="M701.595,78.509c4.68,5,7.02,12.14,7.02,21.419
			c0,10.56-2.44,18.659-7.32,24.3c-4.879,5.639-11.92,8.459-21.119,8.459c-0.64,0-1.779-0.02-3.42-0.061
			c-1.64-0.039-3.42-0.08-5.34-0.119c-1.92-0.041-3.819-0.08-5.699-0.12s-3.38-0.101-4.5-0.181V71.489l20.039-0.479
			C690.135,71.009,696.916,73.509,701.595,78.509z M699.794,80.309c-4.279-4.52-10.499-6.78-18.659-6.78
			c-0.479,0-1.479,0.02-2.999,0.06c-1.521,0.04-3.201,0.08-5.041,0.12s-3.639,0.1-5.399,0.18c-1.76,0.08-3.12,0.12-4.079,0.12
			v55.918c1.039,0.08,2.379,0.14,4.02,0.18c1.64,0.04,3.3,0.08,4.979,0.12c1.681,0.04,3.24,0.08,4.68,0.12
			c1.44,0.04,2.44,0.061,3,0.061c8.319,0,14.72-2.601,19.199-7.801c4.479-5.199,6.72-12.719,6.72-22.559
			C706.214,91.408,704.075,84.829,699.794,80.309z"/>
	</g>
	<g>
		<path fill="#FFFFFF" d="M330.647,102.175c0,0,0.882,7.457-2.226,13.145"/>
		<path fill="#1563A2" d="M329.738,116.038l-2.633-1.438c2.845-5.208,2.061-12.18,2.052-12.25l2.979-0.352
			C332.174,102.322,333.037,110,329.738,116.038z"/>
	</g>
	<g>
		<path fill="#FFFFFF" d="M346.314,102.175c0,0-0.882,7.457,2.226,13.145"/>
		<path fill="#1563A2" d="M347.223,116.038c-3.299-6.038-2.438-13.716-2.399-14.039l2.979,0.351
			c-0.008,0.07-0.78,7.065,2.053,12.251L347.223,116.038z"/>
	</g>
</g>
</svg>
